<?xml version="1.0" encoding="UTF-8" standalone="no"?> <!-- Created with Vectornator for iOS (http://vectornator.io/) --><!DOCTYPE svg PUBLIC "-//W3C//DTD SVG 1.1//EN" "http://www.w3.org/Graphics/SVG/1.1/DTD/svg11.dtd">
<svg height="100%" style="fill-rule:evenodd;clip-rule:evenodd;stroke-linecap:round;stroke-linejoin:round;" xmlns:xlink="http://www.w3.org/1999/xlink" xmlns="http://www.w3.org/2000/svg" xml:space="preserve" width="100%" xmlns:vectornator="http://vectornator.io" version="1.1" viewBox="0 0 39.6875 39.6875">
<metadata>
<vectornator:setting key="DynamicGuides" value="1"/>
<vectornator:setting key="Units" value="Points"/>
<vectornator:setting key="GuidesVisible" value="1"/>
<vectornator:setting key="RulersVisible" value="1"/>
<vectornator:setting key="SnapToGuides" value="1"/>
<vectornator:setting key="GridSpacing" value="36"/>
</metadata>
<defs/>
<g id="layer1" vectornator:layerName="layer1">
<g opacity="1">
<path d="M19.946+27.8648C19.81+27.8643+19.6896+27.8514+19.647+27.8329C19.6078+27.8158+19.5484+27.7693+19.5149+27.7294C19.4813+27.6896+19.4425+27.6036+19.4285+27.5384C19.4117+27.4604+19.4034+26.9697+19.404+26.1076C19.4047+25.0377+19.4111+24.7781+19.4381+24.702C19.4562+24.6506+19.4954+24.5876+19.5251+24.5619C19.5548+24.5362+19.7627+24.4532+19.9872+24.3775C20.2117+24.3018+20.4951+24.1872+20.6171+24.123C20.7391+24.0588+20.9072+23.9643+20.9907+23.9131C21.0741+23.8619+21.216+23.7646+21.3059+23.697C21.3958+23.6293+21.5402+23.5126+21.6268+23.4375C21.7135+23.3625+21.8695+23.2065+21.9735+23.091C22.0775+22.9754+22.2353+22.7796+22.3241+22.6558C22.4129+22.5321+22.5406+22.3325+22.6079+22.2123C22.6751+22.0922+22.765+21.9097+22.8076+21.8069C22.8502+21.7041+22.9048+21.5666+22.929+21.5014C22.9531+21.4361+23.006+21.2474+23.0465+21.082C23.0869+20.9166+23.1347+20.6705+23.1526+20.5352C23.1704+20.3998+23.185+20.1736+23.1848+20.0323C23.1847+19.891+23.1693+19.6682+23.1507+19.5372C23.1321+19.4062+23.0842+19.1645+23.0442+19.0002C23.0042+18.8359+22.9196+18.5701+22.856+18.4096C22.7925+18.2491+22.6819+18.0126+22.6103+17.8842C22.5387+17.7558+22.406+17.5457+22.3155+17.4173C22.2103+17.2681+22.0235+17.0574+21.7982+16.8336C21.5183+16.5556+21.3829+16.4416+21.1422+16.281C20.9754+16.1697+20.7549+16.0366+20.6521+15.9853C20.5494+15.9339+20.3577+15.8491+20.2262+15.7968C20.0947+15.7444+19.895+15.6786+19.7826+15.6505C19.6369+15.614+19.5601+15.5814+19.5156+15.537C19.4812+15.5027+19.4444+15.4337+19.4339+15.3836C19.4233+15.3335+19.4147+15.1402+19.4147+14.954C19.4147+14.7678+19.423+14.5761+19.4332+14.528C19.4434+14.4799+19.4767+14.4116+19.5072+14.3762C19.5594+14.3157+19.5727+14.3122+19.7338+14.3176C19.828+14.3209+20.0521+14.3448+20.2319+14.3711C20.4116+14.3975+20.6848+14.4495+20.8389+14.4866C20.993+14.5238+21.2576+14.6018+21.4268+14.66C21.596+14.7182+21.8423+14.8143+21.974+14.8735C22.1058+14.9327+22.3245+15.0402+22.4602+15.1124C22.5958+15.1846+22.7936+15.2995+22.8997+15.3677C23.0058+15.4359+23.2+15.5729+23.3314+15.6723C23.4627+15.7716+23.7268+16.0053+23.9184+16.1915C24.11+16.3777+24.3497+16.6298+24.4511+16.7518C24.5525+16.8738+24.7088+17.0811+24.7984+17.2124C24.8881+17.3437+25.0202+17.5538+25.0919+17.6793C25.1637+17.8049+25.2565+17.9811+25.2981+18.071C25.3398+18.1609+25.416+18.329+25.4674+18.4446C25.5188+18.5602+25.6093+18.8071+25.6684+18.9933C25.7275+19.1795+25.8069+19.4894+25.8447+19.6821C25.8825+19.8747+25.9321+20.1846+25.955+20.3708C25.9801+20.5756+25.9967+20.8709+25.9969+21.118C25.9971+21.3427+25.9835+21.6317+25.9666+21.7601C25.9498+21.8885+25.9207+22.0922+25.9021+22.2127C25.8835+22.3332+25.8473+22.5364+25.8216+22.6643C25.796+22.7922+25.7333+23.0298+25.6823+23.1924C25.6313+23.3549+25.5599+23.563+25.5237+23.6549C25.4874+23.7468+25.3672+24.0042+25.2566+24.2269C25.1459+24.4497+24.9874+24.7341+24.9043+24.859C24.8213+24.9839+24.6936+25.1654+24.6206+25.2624C24.5476+25.3594+24.4015+25.5356+24.2959+25.6541C24.1904+25.7725+23.9998+25.9681+23.8724+26.0887C23.745+26.2093+23.5725+26.3647+23.489+26.4339C23.4055+26.5032+23.1796+26.6657+22.987+26.795C22.7879+26.9287+22.48+27.1072+22.2736+27.2087C22.0739+27.3068+21.8269+27.4216+21.7249+27.4637C21.6229+27.506+21.4343+27.5722+21.3059+27.6111C21.1775+27.6499+20.975+27.7074+20.8559+27.7387C20.7369+27.7701+20.5347+27.8115+20.4067+27.8307C20.2786+27.85+20.0713+27.8653+19.946+27.8648ZM17.6402+27.7002C17.3972+27.6996+17.3291+27.6899+17.1266+27.6287C16.9981+27.5899+16.7933+27.5178+16.6713+27.4686C16.5493+27.4194+16.3601+27.3372+16.251+27.286C16.1418+27.2348+15.9527+27.1383+15.8307+27.0716C15.7087+27.005+15.4986+26.8764+15.3637+26.7859C15.2289+26.6954+15.0188+26.5421+14.8968+26.4452C14.7748+26.3482+14.5479+26.1423+14.3926+25.9875C14.2373+25.8326+14.0236+25.6009+13.9178+25.4725C13.812+25.3441+13.6384+25.1077+13.5321+24.9471C13.4257+24.7866+13.2858+24.5607+13.2212+24.4452C13.1566+24.3296+13.0492+24.1142+12.9824+23.9665C12.9157+23.8188+12.8049+23.5299+12.7363+23.3244C12.6622+23.1022+12.5789+22.7853+12.5309+22.5423C12.4866+22.3175+12.4361+22.0549+12.4188+21.9585C12.3973+21.8392+12.3872+21.5751+12.387+21.1297C12.3869+20.7083+12.3975+20.4095+12.4168+20.2891C12.4333+20.1864+12.4679+19.9868+12.4937+19.8455C12.5196+19.7042+12.5664+19.4889+12.5978+19.3669C12.6293+19.2449+12.6912+19.0325+12.7355+18.8949C12.7797+18.7573+12.8702+18.5209+12.9366+18.3695C13.003+18.2182+13.1156+17.984+13.1869+17.8492C13.2583+17.7144+13.3919+17.4885+13.4838+17.3472C13.5757+17.206+13.735+16.9853+13.8376+16.8569C13.9403+16.7285+14.1129+16.5298+14.2212+16.4154C14.3295+16.3011+14.5203+16.1157+14.6452+16.0035C14.7701+15.8913+14.952+15.7395+15.0495+15.6661C15.1469+15.5928+15.3263+15.4662+15.4481+15.3848C15.5698+15.3034+15.7977+15.1714+15.9544+15.0915C16.1111+15.0116+16.3432+14.9001+16.4702+14.8438C16.5972+14.7875+16.8355+14.6954+16.9998+14.6391C17.1641+14.5828+17.4227+14.5088+17.5744+14.4747C17.7554+14.434+17.8901+14.4163+17.9657+14.4234C18.0527+14.4317+18.0939+14.4492+18.1331+14.4948C18.1618+14.5281+18.1981+14.6132+18.2139+14.6839C18.2325+14.7671+18.2377+14.8948+18.2286+15.0449C18.2208+15.1726+18.1996+15.3121+18.1815+15.3549C18.1634+15.3977+18.1287+15.4504+18.1042+15.4721C18.0798+15.4939+17.8864+15.5534+17.6744+15.6044C17.4625+15.6555+17.1789+15.7409+17.0444+15.7942C16.9098+15.8476+16.6893+15.9496+16.5545+16.0209C16.4197+16.0923+16.1924+16.2334+16.0494+16.3344C15.9065+16.4355+15.6877+16.6145+15.5632+16.7324C15.4387+16.8502+15.2602+17.0369+15.1665+17.1473C15.0728+17.2577+14.9361+17.4403+14.8626+17.553C14.7892+17.6657+14.6822+17.8425+14.625+17.946C14.5678+18.0494+14.4799+18.2371+14.4297+18.3631C14.3795+18.4891+14.3126+18.6745+14.281+18.7752C14.2493+18.8759+14.2027+19.0738+14.1772+19.2151C14.1518+19.3563+14.1193+19.556+14.1051+19.6587C14.0909+19.7614+14.0793+19.937+14.0794+20.0488C14.0795+20.1607+14.0911+20.334+14.1052+20.4341C14.1193+20.5341+14.1453+20.7001+14.163+20.8028C14.1806+20.9055+14.2159+21.0736+14.2415+21.1764C14.267+21.2791+14.3364+21.4892+14.3956+21.6433C14.4549+21.7974+14.5513+22.0127+14.6098+22.1216C14.6682+22.2306+14.7796+22.4144+14.8571+22.5302C14.9346+22.646+15.0584+22.8143+15.1322+22.9042C15.206+22.994+15.3644+23.1635+15.4843+23.2807C15.6042+23.3979+15.7811+23.5566+15.8774+23.6333C15.9737+23.71+16.1366+23.825+16.2393+23.8887C16.342+23.9525+16.5206+24.055+16.6362+24.1166C16.7518+24.1781+16.9882+24.2787+17.1616+24.3401C17.3349+24.4014+17.5713+24.4696+17.6869+24.4915C17.8025+24.5135+17.9443+24.5488+18.0021+24.5701C18.0882+24.6017+18.1168+24.6281+18.1605+24.7159C18.2137+24.8232+18.2137+24.8232+18.2071+26.1529C18.2013+27.3951+18.1977+27.4868+18.1579+27.5477C18.1344+27.5835+18.0714+27.6327+18.0178+27.657C17.939+27.6928+17.8668+27.7011+17.6402+27.7002Z" opacity="1" fill="#ac1301"/>
<path d="M36.9953+17.9338C36.994+18.2785+36.9615+18.5834+36.9144+18.6912C36.8713+18.7904+36.7533+18.941+36.6524+19.0259C36.5515+19.1109+36.3337+19.2094+36.1685+19.2448C35.9711+19.2872+34.728+19.3084+32.5444+19.3066C29.8343+19.3047+29.1768+19.2886+28.984+19.2203C28.8539+19.1743+28.6942+19.0751+28.6291+18.9999C28.5641+18.9247+28.3539+18.3979+28.162+17.8294C27.9702+17.2608+27.6801+16.5428+27.5174+16.2338C27.3548+15.9248+27.1155+15.499+26.9858+15.2876C26.856+15.0761+26.6096+14.7169+26.4382+14.4892C26.2669+14.2615+25.9712+13.8956+25.7811+13.6761C25.591+13.4567+25.196+13.0615+24.9032+12.7981C24.6105+12.5346+24.1145+12.135+23.8011+11.91C23.4876+11.685+22.9821+11.3616+22.6777+11.1913C22.3734+11.0209+21.9113+10.7932+21.6508+10.6854C21.3904+10.5775+21.0421+10.4391+20.8768+10.3779C20.7115+10.3166+20.2335+10.1827+19.8145+10.0802C19.3955+9.97774+18.7723+9.85685+18.4295+9.81154C18.0867+9.76629+17.5135+9.72951+17.1557+9.72987C16.7979+9.7301+16.2335+9.76906+15.9017+9.81623C15.5697+9.86345+14.9576+9.98484+14.5414+10.086C14.1252+10.1872+13.452+10.4017+13.0453+10.5627C12.6387+10.7236+12.0399+11.0037+11.7147+11.1851C11.3894+11.3664+10.8571+11.7025+10.5318+11.9318C10.1539+12.1983+9.62021+12.6713+9.05329+13.2422C8.34921+13.9512+8.06042+14.2941+7.65365+14.9038C7.37178+15.3263+7.03474+15.8849+6.90468+16.1451C6.77457+16.4054+6.55978+16.8909+6.42717+17.2241C6.29472+17.5572+6.12785+18.0629+6.05659+18.3477C5.96418+18.7168+5.8816+18.9111+5.7691+19.0239C5.68236+19.111+5.50752+19.2042+5.38061+19.2309C5.25368+19.2576+4.76405+19.2796+4.2924+19.2796C3.82075+19.2796+3.33513+19.2586+3.21332+19.2326C3.09155+19.2067+2.91849+19.1224+2.82888+19.0452C2.67559+18.913+2.66691+18.8792+2.68042+18.4712C2.68876+18.2328+2.74931+17.6651+2.81604+17.2097C2.88276+16.7543+3.0144+16.0623+3.1085+15.672C3.20257+15.2817+3.4003+14.6116+3.54768+14.183C3.69513+13.7543+3.93848+13.1306+4.08847+12.7968C4.23843+12.4631+4.51081+11.9089+4.69366+11.5653C4.8766+11.2218+5.1675+10.7208+5.3402+10.452C5.51296+10.1833+5.86018+9.69131+6.11182+9.3587C6.36346+9.02609+6.95524+8.35696+7.42689+7.87171C7.89855+7.38645+8.53728+6.77931+8.84629+6.52252C9.1553+6.26566+9.68024+5.86971+10.0128+5.64261C10.3454+5.41544+10.8777+5.08094+11.1956+4.8992C11.5136+4.71746+11.9601+4.48237+12.1878+4.37686C12.4155+4.27127+12.8413+4.07837+13.1341+3.94814C13.4268+3.8179+14.0522+3.5888+14.5239+3.43893C14.9955+3.28914+15.7806+3.08822+16.2685+2.99248C16.7565+2.89671+17.5416+2.771+18.0132+2.7131C18.5319+2.64941+19.2797+2.60742+19.9057+2.60682C20.475+2.60638+21.2069+2.64086+21.5321+2.68364C21.8574+2.72636+22.3733+2.79997+22.6785+2.84706C22.9838+2.89418+23.4986+2.98592+23.8226+3.05086C24.1465+3.11581+24.7484+3.27465+25.1601+3.40381C25.5718+3.53305+26.099+3.71383+26.3317+3.80562C26.5644+3.89745+27.2164+4.20187+27.7807+4.4822C28.3449+4.76247+29.0653+5.16392+29.3816+5.37435C29.6979+5.58472+30.1577+5.90816+30.4035+6.0931C30.6492+6.27797+31.0956+6.64802+31.3956+6.9154C31.6956+7.18278+32.191+7.66555+32.4966+7.98828C32.802+8.31102+33.1955+8.74802+33.371+8.95945C33.5464+9.17088+33.958+9.74307+34.2856+10.231C34.6243+10.7352+35.0764+11.5151+35.3333+12.038C35.5818+12.5439+35.8727+13.1694+35.9795+13.4278C36.0864+13.6863+36.2542+14.1639+36.3526+14.4892C36.4511+14.8144+36.5966+15.3273+36.676+15.6289C36.7554+15.9304+36.8603+16.4426+36.909+16.767C36.9578+17.0913+36.9966+17.6164+36.9953+17.9338ZM36.5785+23.7744C36.5772+24.3899+36.5524+24.5626+36.3972+25.0755C36.2989+25.4008+36.1164+25.9198+35.9917+26.2288C35.8671+26.5378+35.659+27.0168+35.5292+27.2933C35.3994+27.5698+35.1551+28.0489+34.9862+28.3579C34.8174+28.6669+34.4917+29.1992+34.2624+29.5407C34.0332+29.8822+33.6448+30.4145+33.3994+30.7235C33.1539+31.0325+32.6322+31.6072+32.2401+32.0006C31.8479+32.394+31.2609+32.9352+30.9356+33.2032C30.6103+33.4713+30.0115+33.911+29.6049+34.1803C29.1984+34.4498+28.6262+34.8041+28.3334+34.9676C28.0407+35.1312+27.4951+35.4035+27.121+35.5725C26.7469+35.7417+26.0151+36.0222+25.4946+36.1959C24.9318+36.3838+24.1289+36.5946+23.5134+36.7162C22.9441+36.8285+22.2788+36.9564+22.0348+37.0003C21.7326+37.0546+21.0636+37.0802+19.9353+37.0807C18.8681+37.0811+18.1111+37.0543+17.8062+37.0053C17.546+36.9634+17.0403+36.8758+16.6825+36.8104C16.3247+36.745+15.7791+36.6263+15.4701+36.5467C15.1611+36.467+14.6231+36.3102+14.2746+36.1981C13.9261+36.086+13.3273+35.8568+12.9439+35.6887C12.5605+35.5205+11.9675+35.2352+11.6259+35.0545C11.2844+34.8739+10.7122+34.5355+10.3544+34.3026C9.99658+34.0697+9.4377+33.6664+9.11241+33.4063C8.78714+33.1462+8.28397+32.709+7.99423+32.4347C7.70449+32.1604+7.23497+31.6771+6.95073+31.3607C6.66656+31.0443+6.28203+30.5835+6.09626+30.3366C5.9105+30.0898+5.58977+29.6355+5.3836+29.3271C5.17738+29.0187+4.84305+28.4416+4.64062+28.0446C4.43823+27.6477+4.15588+27.0597+4.01324+26.7381C3.87063+26.4164+3.63728+25.8127+3.49475+25.3966C3.3523+24.9804+3.16479+24.3254+3.07827+23.941C2.97518+23.4827+2.93048+23.1416+2.94849+22.9499C2.96935+22.7296+3.01371+22.6252+3.1293+22.5259C3.21353+22.4534+3.42914+22.3613+3.60834+22.3211C3.81888+22.2741+4.1424+22.261+4.52255+22.2841C4.84617+22.3038+5.19955+22.3575+5.30784+22.4032C5.41609+22.449+5.54979+22.5372+5.60485+22.5991C5.6599+22.661+5.81072+23.1509+5.93994+23.6878C6.06922+24.2247+6.28556+24.9428+6.42064+25.2837C6.55575+25.6246+6.81417+26.183+6.99497+26.5245C7.17577+26.8661+7.53303+27.4417+7.789+27.8039C8.04491+28.1659+8.49847+28.7202+8.79695+29.0356C9.09538+29.3509+9.56839+29.8031+9.84806+30.0404C10.1277+30.2777+10.5901+30.624+10.8755+30.8101C11.161+30.9961+11.6089+31.267+11.871+31.412C12.1331+31.5569+12.6086+31.7795+12.9276+31.9066C13.2467+32.0337+13.7164+32.2033+13.9714+32.2834C14.2265+32.3635+14.7279+32.4817+15.0857+32.5461C15.4435+32.6105+15.9492+32.6927+16.2094+32.7288C16.4696+32.7647+16.9143+32.7941+17.1976+32.7939C17.4809+32.7937+17.92+32.7643+18.1734+32.7285C18.4268+32.6928+18.8471+32.6269+19.1073+32.5822C19.3675+32.5375+19.7934+32.448+20.0536+32.3834C20.3138+32.3187+20.8461+32.143+21.2364+31.9928C21.6267+31.8427+22.1719+31.5986+22.4479+31.4505C22.7239+31.3023+23.1896+31.0204+23.4829+30.824C23.7761+30.6277+24.2024+30.3141+24.4301+30.1272C24.6577+29.9403+25.0869+29.5389+25.3838+29.2353C25.6807+28.9316+26.0826+28.4836+26.2769+28.2396C26.4713+27.9956+26.7625+27.5831+26.9239+27.3229C27.0854+27.0627+27.3451+26.6103+27.5011+26.3175C27.6571+26.0248+27.9118+25.4259+28.0672+24.9868C28.2227+24.5477+28.3953+23.9489+28.4509+23.6561C28.5065+23.3634+28.596+23.0041+28.6498+22.8577C28.73+22.6397+28.7967+22.5672+29.0193+22.4566C29.291+22.3217+29.291+22.3217+32.6591+22.3383C35.8056+22.354+36.0379+22.3621+36.192+22.4631C36.2828+22.5227+36.4074+22.6823+36.469+22.818C36.5596+23.0175+36.5806+23.2004+36.5785+23.7744Z" opacity="1" fill="#ac1301"/>
</g>
</g>
</svg>
